<svg width="186" height="186" viewBox="0 0 186 186" fill="none" xmlns="http://www.w3.org/2000/svg">
<path fill-rule="evenodd" clip-rule="evenodd" d="M118.308 2.17152C116.658 4.1938 112.855 20.829 109.855 39.1407C106.465 59.8637 103.121 72.0221 100.999 71.3428C99.1252 70.7469 90.5358 57.159 81.9091 41.1506C67.308 14.052 59.0535 5.6943 54.3571 13.2586C53.29 14.9752 59.4847 30.397 68.1238 47.5293C76.7629 64.6616 83.0196 79.9846 82.027 81.5808C81.0374 83.177 66.1819 77.4683 49.0154 68.8945C31.8489 60.3206 15.8674 54.0469 13.4944 54.9515C3.31357 58.8417 10.8856 66.4955 40.2057 81.9482C57.2668 90.942 71.2258 99.4232 71.2258 100.797C71.2258 104.162 68.3037 104.944 32.9718 111.026C13.1779 114.431 1.87114 117.827 0.763719 120.702C-2.64539 129.547 4.67845 130.606 36.5981 125.892C54.2144 123.289 70.869 122.014 73.6081 123.064C77.4453 124.527 72.6496 130.915 52.7595 150.814C34.9292 168.65 27.5092 178.181 28.8152 181.562C32.1374 190.182 38.3445 186.949 59.4102 165.624L79.9952 144.784L81.0405 119.785C82.4395 86.2953 84.1394 84.5787 115.885 84.5787H141.176L163.588 62.1206C175.915 49.7708 186 37.2666 186 34.3335C186 23.512 174.442 29.5511 151.878 52.1605C139.169 64.8962 126.972 75.3164 124.776 75.3164C120.607 75.3164 120.613 75.1743 127.018 29.9555C128.749 17.7446 130.164 6.4322 130.164 4.81438C130.164 0.0813131 121.581 -1.83291 118.308 2.17152ZM99.1438 114.515V125.926L110.001 115.453C115.972 109.692 120.858 104.558 120.858 104.042C120.858 103.526 115.972 103.103 110.001 103.103C99.5502 103.103 99.1438 103.533 99.1438 114.515Z" fill="white"/>
</svg>
