<svg width="20" height="20" viewBox="0 0 20 20" fill="none" xmlns="http://www.w3.org/2000/svg">
<path fill-rule="evenodd" clip-rule="evenodd" d="M5.15184 8.61141C4.33704 8.61141 4.16699 8.77133 4.16699 9.53733V10.9262C4.16699 11.6923 4.33704 11.8522 5.15184 11.8522H7.12153V17.4077C7.12153 18.1737 7.29158 18.3337 8.10638 18.3337H10.0761C10.8909 18.3337 11.0609 18.1737 11.0609 17.4077V11.8522H13.2726C13.8906 11.8522 14.0498 11.7392 14.2196 11.1807L14.6417 9.79174C14.9324 8.83482 14.7532 8.61141 13.6947 8.61141H11.0609V6.29663C11.0609 5.78525 11.5018 5.37069 12.0457 5.37069H14.8488C15.6636 5.37069 15.8337 5.21082 15.8337 4.44477V2.59292C15.8337 1.82687 15.6636 1.66699 14.8488 1.66699H12.0457C9.32616 1.66699 7.12153 3.73975 7.12153 6.29663V8.61141H5.15184Z" stroke="#3B898A" stroke-width="1.5" stroke-linejoin="round"/>
</svg>
