<svg width="20" height="20" viewBox="0 0 20 20" fill="none" xmlns="http://www.w3.org/2000/svg">
<path d="M2.5 10C2.5 6.46447 2.5 4.6967 3.59835 3.59835C4.6967 2.5 6.46447 2.5 10 2.5C13.5355 2.5 15.3033 2.5 16.4017 3.59835C17.5 4.6967 17.5 6.46447 17.5 10C17.5 13.5355 17.5 15.3033 16.4017 16.4017C15.3033 17.5 13.5355 17.5 10 17.5C6.46447 17.5 4.6967 17.5 3.59835 16.4017C2.5 15.3033 2.5 13.5355 2.5 10Z" stroke="#3B898A" stroke-width="1.5" stroke-linecap="round" stroke-linejoin="round"/>
<path d="M13.3332 10.0003C13.3332 11.8412 11.8408 13.3337 9.99984 13.3337C8.15889 13.3337 6.6665 11.8412 6.6665 10.0003C6.6665 8.15938 8.15889 6.66699 9.99984 6.66699C11.8408 6.66699 13.3332 8.15938 13.3332 10.0003Z" stroke="#3B898A" stroke-width="1.5" stroke-linecap="round" stroke-linejoin="round"/>
<path d="M14.479 5.62533H14.3748M14.5832 5.62533C14.5832 5.74039 14.4898 5.83366 14.3748 5.83366C14.2598 5.83366 14.1665 5.74039 14.1665 5.62533C14.1665 5.51027 14.2598 5.41699 14.3748 5.41699C14.4898 5.41699 14.5832 5.51027 14.5832 5.62533Z" stroke="#3B898A" stroke-width="1.5" stroke-linecap="round" stroke-linejoin="round"/>
</svg>
