<svg width="26" height="26" viewBox="0 0 26 26" fill="none" xmlns="http://www.w3.org/2000/svg">
<path fill-rule="evenodd" clip-rule="evenodd" d="M16.5377 0.303545C16.307 0.58623 15.7754 2.91158 15.3561 5.47128C14.8821 8.36804 14.4147 10.0676 14.1181 9.97265C13.8562 9.88936 12.6555 7.98997 11.4497 5.75223C9.40864 1.96426 8.25479 0.795978 7.5983 1.85335C7.44914 2.09331 8.31506 4.24904 9.52268 6.64388C10.7303 9.03871 11.6049 11.1806 11.4661 11.4038C11.3278 11.6269 9.25124 10.8289 6.85162 9.63041C4.452 8.43191 2.21802 7.55494 1.88631 7.6814C0.463187 8.22519 1.52164 9.29507 5.62015 11.4551C8.00503 12.7123 9.95629 13.8979 9.95629 14.0899C9.95629 14.5603 9.54783 14.6695 4.60897 15.5197C1.84208 15.9958 0.261557 16.4705 0.106756 16.8723C-0.369785 18.1088 0.653977 18.2568 5.11586 17.5978C7.57835 17.234 9.90643 17.0557 10.2893 17.2025C10.8257 17.407 10.1553 18.3 7.37499 21.0815C4.88258 23.5747 3.84537 24.907 4.02793 25.3796C4.49233 26.5846 5.35999 26.1327 8.30466 23.1518L11.1821 20.2386L11.3282 16.7441C11.5238 12.0628 11.7614 11.8228 16.199 11.8228H19.7343L22.8671 8.68352C24.5903 6.95721 26 5.20931 26 4.79931C26 3.28662 24.3844 4.13079 21.2302 7.29125C19.4537 9.07151 17.7488 10.5281 17.4418 10.5281C16.859 10.5281 16.8599 10.5082 17.7553 4.18733C17.9972 2.48043 18.195 0.899125 18.195 0.672978C18.195 0.0113664 16.9951 -0.256213 16.5377 0.303545ZM13.8588 16.0074V17.6025L15.3765 16.1386C16.2112 15.3333 16.8941 14.6156 16.8941 14.5435C16.8941 14.4714 16.2112 14.4123 15.3765 14.4123C13.9156 14.4123 13.8588 14.4723 13.8588 16.0074Z" fill="white"/>
</svg>
